<svg xmlns="http://www.w3.org/2000/svg" viewBox="0 0 64 64">
  <style>svg{shape-rendering:geometricPrecision}</style>
  <path fill="#2ecc71" d="M32 6c-3.3 0-6 2.7-6 6h-6.5l4.9 4.9-4.9 4.9H26c0 6.6 5.4 12 12 12 1.9 0 3.7-.5 5.3-1.4l4.3 7.4C42 45.6 37.3 48 32 48c-8.8 0-16-7.2-16-16h-6c0 11 9 20 20 20 7.8 0 14.5-4.7 17.4-11.4l3.8 1.9V42h6V22h-6v3.8l-4.6-2.3C38.1 20.4 35.1 20 32 20c-6.6 0-12-5.4-12-12h-6c0 9.9 8.1 18 18 18 3.3 0 6.4-.9 9.1-2.5l-4.6-4.6 4.9-4.9L47 17.5H40c0-3.3-2.7-6-6-6z"/>
</svg>
